<svg width="256" height="256" fill="none" xmlns="http://www.w3.org/2000/svg">
    <path d="M206.198 128.55c13.323-13.322 32.124-17.828 49.152-13.518.429 4.265.65 8.591.65 12.968 0 70.692-57.308 128-128 128C57.703 256 .645 199.333.008 129.187c.159 12.98 5.187 25.912 15.09 35.816 6.64 6.639 14.64 11.088 23.103 13.348-4.592-17.198-.144-36.308 13.348-49.8a51.31 51.31 0 0 1 27.808-14.372c-5.05 17.459-.694 37.063 13.066 50.824 6.64 6.639 14.639 11.088 23.102 13.348-4.592-17.198-.143-36.308 13.349-49.8a51.308 51.308 0 0 1 27.81-14.372c-5.051 17.459-.696 37.063 13.064 50.823a51.317 51.317 0 0 0 23.104 13.348c-4.593-17.198-.145-36.308 13.346-49.8ZM128 0c65.237 0 119.074 48.804 126.995 111.894a51.322 51.322 0 0 0-12.344-19.795c-20.131-20.132-52.772-20.132-72.904 0a52.646 52.646 0 0 0-2.213 2.353 51.932 51.932 0 0 0-2.209-2.351c-20.131-20.132-52.772-20.132-72.903 0a52.365 52.365 0 0 0-2.211 2.35A52.302 52.302 0 0 0 88 92.1c-20.132-20.131-52.772-20.131-72.903 0C5.082 102.116.05 115.228.002 128.355L0 128C0 57.308 57.308 0 128 0Z" fill="#fff"/>
</svg>
